<svg width="44" height="35" viewBox="0 0 44 35" fill="none" xmlns="http://www.w3.org/2000/svg">
<path fill-rule="evenodd" clip-rule="evenodd" d="M35.1721 35C39.5002 35 43.0088 31.4083 43.0088 26.9777C43.0088 22.547 39.5002 18.9553 35.1721 18.9553C30.844 18.9553 27.3354 22.547 27.3354 26.9777C27.3354 31.4083 30.844 35 35.1721 35ZM35.2093 32.2516C38.081 32.2516 40.4089 29.8737 40.4089 26.9405C40.4089 24.0072 38.081 21.6294 35.2093 21.6294C32.3376 21.6294 30.0096 24.0072 30.0096 26.9405C30.0096 29.8737 32.3376 32.2516 35.2093 32.2516Z" fill="white"/>
<path fill-rule="evenodd" clip-rule="evenodd" d="M34.6111 0C35.544 0 36.343 0.332111 37.0075 0.996705C37.6723 1.66115 38.0042 2.46004 38.0042 3.39331V18.0786C37.1482 17.7916 36.2362 17.6312 35.2893 17.619V8.82245C35.2893 8.6386 35.2223 8.47949 35.088 8.34504C34.9538 8.21067 34.7947 8.14381 34.6111 8.14381H3.39331C3.20954 8.14381 3.05058 8.21089 2.9162 8.34504C2.78183 8.47949 2.71475 8.6386 2.71475 8.82245V26.467C2.71475 26.6508 2.78183 26.8099 2.9162 26.9442C3.0505 27.0786 3.20954 27.1452 3.39331 27.1452H26.0748C26.0947 28.0918 26.2524 29.0036 26.528 29.8606H3.39331C2.46012 29.8606 1.66115 29.5286 0.996704 28.8642C0.332111 28.1991 0 27.4009 0 26.4675V3.39331C0 2.46004 0.332111 1.66145 0.996704 0.996705C1.66122 0.332111 2.46019 0 3.39331 0H34.6111Z" fill="white"/>
<path d="M7.46525 10.7865H6.10799C5.92421 10.7865 5.76518 10.8535 5.63088 10.9877C5.49665 11.1223 5.42943 11.281 5.42943 11.4648V12.8224C5.42943 13.006 5.49665 13.1652 5.63088 13.2995C5.76525 13.4335 5.92421 13.501 6.10799 13.501H7.46525C7.64895 13.501 7.80806 13.4338 7.94236 13.2995C8.07658 13.1652 8.14381 13.006 8.14381 12.8224V11.4648C8.14381 11.281 8.07658 11.122 7.94236 10.9877C7.80806 10.8537 7.64895 10.7865 7.46525 10.7865Z" fill="white"/>
<path d="M31.8962 10.7865H11.5368C11.3531 10.7865 11.194 10.8535 11.0597 10.9877C10.9255 11.1223 10.8583 11.281 10.8583 11.4648V12.8224C10.8583 13.006 10.9255 13.1655 11.0597 13.2995C11.1941 13.4335 11.3532 13.501 11.5368 13.501H31.8965C32.0806 13.501 32.2399 13.4338 32.3739 13.2995C32.5079 13.1652 32.575 13.006 32.575 12.8224V11.4648C32.575 11.281 32.5076 11.122 32.3736 10.9877C32.2394 10.8537 32.0802 10.7865 31.8962 10.7865Z" fill="white"/>
<rect x="34.4664" y="23.5607" width="1.41134" height="6.75958" rx="0.705671" fill="white"/>
<rect x="38.5519" y="26.2349" width="1.41134" height="6.75958" rx="0.705671" transform="rotate(90 38.5519 26.2349)" fill="white"/>
</svg>
