<svg width="37" height="29" viewBox="0 0 37 29" fill="none" xmlns="http://www.w3.org/2000/svg">
<path d="M35.4104 0.953692C34.7747 0.317779 34.0102 0 33.1175 0H3.24688C2.35402 0 1.58953 0.317779 0.953692 0.953692C0.317779 1.58975 0 2.35388 0 3.24687V25.3253C0 26.2184 0.317779 26.9822 0.953692 27.6186C1.58946 28.2543 2.35395 28.572 3.24688 28.572H33.1175C34.0102 28.572 34.7747 28.2543 35.4105 27.6186C36.0466 26.9822 36.3642 26.218 36.3642 25.3253V3.24687C36.3641 2.35388 36.0466 1.58946 35.4104 0.953692ZM33.7665 25.3248C33.7665 25.5007 33.7023 25.6529 33.5738 25.7814C33.4456 25.91 33.2932 25.9737 33.1175 25.9737H3.24688C3.07103 25.9737 2.91886 25.91 2.79036 25.7814C2.66178 25.6529 2.5976 25.5007 2.5976 25.3248V8.44172C2.5976 8.26581 2.66178 8.11356 2.79036 7.98492C2.91893 7.85655 3.07103 7.79237 3.24688 7.79237H33.1175C33.2932 7.79237 33.4454 7.85634 33.5738 7.98492C33.7023 8.11356 33.7665 8.26581 33.7665 8.44172V25.3248Z" fill="white"/>
<path d="M15.5405 14.0654L7.73591 21.7842C7.6673 22.0587 7.82167 22.2988 7.90744 22.3846C8.13614 22.6133 8.67932 23.1393 9.02238 23.4137C9.36544 23.6882 9.67991 23.5281 9.79426 23.4137C11.7097 21.4983 15.6091 17.616 15.8835 17.4102C16.158 17.2044 16.2838 17.3244 16.3124 17.4102C17.3987 18.4966 19.6572 20.7722 20.0002 21.1839C20.3433 21.5955 20.7721 21.4697 20.9437 21.3554C23.3165 18.8396 28.1307 13.7223 28.4052 13.3793C28.6796 13.0362 28.5767 12.7789 28.4909 12.6932L27.376 11.5782C27.0329 11.2352 26.6613 11.4353 26.5184 11.5782C24.5744 13.5508 20.6521 17.5303 20.5148 17.6675C20.3776 17.8047 20.229 17.7247 20.1718 17.6675L16.5697 14.0654C16.158 13.6537 15.712 13.8939 15.5405 14.0654Z" fill="white"/>
</svg>
