<svg width="42" height="33" viewBox="0 0 42 33" fill="none" xmlns="http://www.w3.org/2000/svg">
<path fill-rule="evenodd" clip-rule="evenodd" d="M26.3752 2.927H5.3199C4.4432 2.927 3.69254 3.23903 3.0682 3.86344C2.44379 4.48799 2.13176 5.2383 2.13176 6.11514V21.5209C2.85703 21.4102 3.74451 21.2781 4.68237 21.1475V11.216C4.68237 11.0433 4.74539 10.8938 4.87164 10.7675C4.99789 10.6414 5.14724 10.5784 5.3199 10.5784H25.0508L29.5925 5.95254L26.3752 2.927ZM11.3354 30.9821C11.4 30.3495 11.4861 29.445 11.5697 28.4309H34.6502C34.8227 28.4309 34.9724 28.3683 35.0983 28.242C35.2244 28.1158 35.2874 27.9664 35.2874 27.7937V11.3079L37.8382 13.7065V27.7942C37.8382 28.6707 37.5263 29.4211 36.9017 30.046C36.2774 30.6702 35.5268 30.9821 34.6502 30.9821H11.3354Z" fill="white"/>
<rect x="33.58" y="5.31281" width="3.40822" height="7.98855" rx="1.70411" transform="rotate(44.4737 33.58 5.31281)" fill="white"/>
<path d="M37.3584 10.3769L30.9017 4.30516C30.6993 4.11473 31.1141 3.83017 31.3885 3.78751C32.1166 3.67428 37.668 2.77603 38.0451 3.13059C38.5164 3.57378 37.8837 9.62948 37.8452 9.85928C37.7993 10.1331 37.5609 10.5673 37.3584 10.3769Z" fill="white"/>
<rect x="5.59663" y="24.1078" width="3.40822" height="7.98855" rx="1.70411" transform="rotate(44.4737 5.59663 24.1078)" fill="white"/>
<path d="M9.37502 29.1719L2.9183 23.1001C2.71589 22.9097 3.13074 22.6251 3.4051 22.5824C4.13324 22.4692 9.68466 21.571 10.0617 21.9255C10.533 22.3687 9.9003 28.4244 9.86181 28.6542C9.81596 28.928 9.57749 29.3622 9.37502 29.1719Z" fill="white"/>
</svg>
