<svg width="37" height="29" viewBox="0 0 37 29" fill="none" xmlns="http://www.w3.org/2000/svg">
<path fill-rule="evenodd" clip-rule="evenodd" d="M18.5106 24.7232C22.5999 24.7232 25.9149 21.3297 25.9149 17.1435C25.9149 12.9573 22.5999 9.56378 18.5106 9.56378C14.4214 9.56378 11.1064 12.9573 11.1064 17.1435C11.1064 21.3297 14.4214 24.7232 18.5106 24.7232ZM18.5457 22.1265C21.259 22.1265 23.4585 19.8798 23.4585 17.1084C23.4585 14.337 21.259 12.0904 18.5457 12.0904C15.8325 12.0904 13.6329 14.337 13.6329 17.1084C13.6329 19.8798 15.8325 22.1265 18.5457 22.1265Z" fill="white"/>
<path d="M35.9409 0.967979C35.2956 0.32254 34.5197 0 33.6136 0H3.29552C2.38929 0 1.61335 0.32254 0.96798 0.967979C0.32254 1.61356 0 2.38914 0 3.29552V25.7047C0 26.6112 0.32254 27.3864 0.96798 28.0323C1.61328 28.6776 2.38922 29 3.29552 29H33.6137C34.5197 29 35.2956 28.6776 35.941 28.0323C36.5866 27.3864 36.909 26.6108 36.909 25.7047V3.29552C36.9089 2.38914 36.5866 1.61328 35.9409 0.967979ZM34.2723 25.7042C34.2723 25.8827 34.2072 26.0372 34.0768 26.1676C33.9467 26.2982 33.7919 26.3628 33.6137 26.3628H3.29552C3.11704 26.3628 2.96259 26.2982 2.83216 26.1676C2.70166 26.0372 2.63651 25.8827 2.63651 25.7042V8.56818C2.63651 8.38964 2.70166 8.23511 2.83216 8.10454C2.96266 7.97425 3.11704 7.90911 3.29552 7.90911H33.6137C33.7919 7.90911 33.9465 7.97404 34.0768 8.10454C34.2072 8.23511 34.2723 8.38964 34.2723 8.56818V25.7042Z" fill="white"/>
<rect x="17.1942" y="13.9992" width="1.47848" height="4.95724" rx="0.739238" fill="white"/>
<rect x="21.0209" y="17.3911" width="1.56545" height="3.82665" rx="0.782723" transform="rotate(90 21.0209 17.3911)" fill="white"/>
</svg>
