<svg width="37" height="29" viewBox="0 0 37 29" fill="none" xmlns="http://www.w3.org/2000/svg">
<path d="M35.4985 0.956063C34.8611 0.318569 34.0947 0 33.1998 0H3.25495C2.35988 0 1.59349 0.318569 0.956063 0.956063C0.318569 1.5937 0 2.35973 0 3.25495V25.3883C0 26.2836 0.318569 27.0493 0.956063 27.6872C1.59342 28.3246 2.3598 28.643 3.25495 28.643H33.1999C34.0948 28.643 34.8611 28.3246 35.4985 27.6872C36.1362 27.0493 36.4546 26.2832 36.4546 25.3883V3.25495C36.4545 2.35973 36.1362 1.59341 35.4985 0.956063ZM33.8504 25.3878C33.8504 25.5641 33.7861 25.7167 33.6573 25.8455C33.5288 25.9744 33.3759 26.0383 33.1999 26.0383H3.25495C3.07867 26.0383 2.92612 25.9744 2.79729 25.8455C2.6684 25.7167 2.60406 25.5641 2.60406 25.3878V8.4627C2.60406 8.28635 2.6684 8.13373 2.79729 8.00477C2.92619 7.87608 3.07867 7.81174 3.25495 7.81174H33.1999C33.3759 7.81174 33.5286 7.87587 33.6573 8.00477C33.7861 8.13373 33.8504 8.28635 33.8504 8.4627V25.3878Z" fill="white"/>
<path d="M7.16086 20.8315H5.85894C5.68266 20.8315 5.53011 20.8953 5.40129 21.0241C5.27254 21.1531 5.20805 21.3057 5.20805 21.482V22.7839C5.20805 22.9604 5.27254 23.1128 5.40129 23.2418C5.53018 23.3708 5.68266 23.4347 5.85894 23.4347H7.16086C7.33707 23.4347 7.48969 23.3708 7.61852 23.2418C7.74727 23.1128 7.81175 22.9604 7.81175 22.7839V21.482C7.81175 21.3057 7.74727 21.1531 7.61852 21.0241C7.48969 20.8958 7.33707 20.8315 7.16086 20.8315Z" fill="white"/>
<path d="M7.16086 15.623H5.85894C5.68266 15.623 5.53011 15.6879 5.40129 15.8164C5.27254 15.9455 5.20805 16.0981 5.20805 16.2742V17.5761C5.20805 17.7528 5.27254 17.9046 5.40129 18.0342C5.53018 18.1624 5.68266 18.227 5.85894 18.227H7.16086C7.33707 18.227 7.48969 18.1624 7.61852 18.0342C7.74727 17.9047 7.81175 17.7528 7.81175 17.5761V16.2742C7.81175 16.0981 7.74727 15.945 7.61852 15.8164C7.48969 15.6879 7.33707 15.623 7.16086 15.623Z" fill="white"/>
<path d="M7.16086 10.4157H5.85894C5.68266 10.4157 5.53011 10.48 5.40129 10.6087C5.27254 10.7378 5.20805 10.89 5.20805 11.0663V12.3685C5.20805 12.5447 5.27254 12.6974 5.40129 12.8262C5.53018 12.9547 5.68266 13.0195 5.85894 13.0195H7.16086C7.33707 13.0195 7.48969 12.955 7.61852 12.8262C7.74727 12.6974 7.81175 12.5447 7.81175 12.3685V11.0663C7.81175 10.89 7.74727 10.7375 7.61852 10.6087C7.48969 10.4801 7.33707 10.4157 7.16086 10.4157Z" fill="white"/>
<path d="M30.5956 20.8315H11.0664C10.8902 20.8315 10.7376 20.8953 10.6087 21.0241C10.48 21.1531 10.4155 21.3057 10.4155 21.482V22.7839C10.4155 22.9604 10.48 23.1128 10.6087 23.2418C10.7376 23.3708 10.8903 23.4347 11.0664 23.4347H30.5959C30.7725 23.4347 30.9248 23.3708 31.0539 23.2418C31.1823 23.1128 31.2467 22.9604 31.2467 22.7839V21.482C31.2467 21.3057 31.1821 21.1531 31.0536 21.0241C30.9248 20.8953 30.7721 20.8315 30.5956 20.8315Z" fill="white"/>
<path d="M30.5956 15.623H11.0664C10.8902 15.623 10.7376 15.6879 10.6087 15.8164C10.48 15.9455 10.4155 16.0981 10.4155 16.2742V17.5761C10.4155 17.7528 10.48 17.9046 10.6087 18.0342C10.7376 18.1624 10.8903 18.227 11.0664 18.227H30.5959C30.7725 18.227 30.9248 18.1624 31.0539 18.0342C31.1823 17.9047 31.2467 17.7528 31.2467 17.5761V16.2742C31.2467 16.0981 31.1821 15.945 31.0536 15.8164C30.9248 15.6879 30.7721 15.623 30.5956 15.623Z" fill="white"/>
<path d="M30.5956 10.4157H11.0664C10.8902 10.4157 10.7376 10.48 10.6087 10.6087C10.48 10.7378 10.4155 10.89 10.4155 11.0663V12.3685C10.4155 12.5447 10.48 12.6976 10.6087 12.8262C10.7376 12.9547 10.8903 13.0195 11.0664 13.0195H30.5959C30.7725 13.0195 30.9253 12.955 31.0539 12.8262C31.1823 12.6974 31.2467 12.5447 31.2467 12.3685V11.0663C31.2467 10.89 31.1821 10.7375 31.0536 10.6087C30.9248 10.4801 30.7721 10.4157 30.5956 10.4157Z" fill="white"/>
</svg>
