<svg width="40" height="31" viewBox="0 0 40 31" fill="none" xmlns="http://www.w3.org/2000/svg">
<path fill-rule="evenodd" clip-rule="evenodd" d="M6.46507 1.42432C2.89366 1.4294 0 4.39476 0 8.05199C0 11.7124 2.89862 14.6797 6.47426 14.6797C10.0399 14.6797 12.9323 11.7289 12.9485 8.08269H10.8003C10.7682 10.4777 8.85737 12.4092 6.50495 12.4092C4.13249 12.4092 2.20923 10.4447 2.20923 8.0214C2.20923 5.61169 4.11097 3.65568 6.46507 3.63381V1.42432Z" fill="white"/>
<path fill-rule="evenodd" clip-rule="evenodd" d="M13.8987 9.18346C13.955 8.80354 13.9842 8.41449 13.9842 8.01847C13.9842 5.17342 12.478 2.68881 10.2382 1.35608H36.7387C37.6354 1.35608 38.4033 1.67529 39.0419 2.31406C39.6809 2.95268 39.9999 3.72054 40 4.61754V26.7952C40 27.6919 39.6809 28.4595 39.042 29.0987C38.4033 29.7374 37.6355 30.0564 36.7387 30.0564H6.73388C5.83694 30.0564 5.06902 29.7374 4.43039 29.0987C3.79162 28.4595 3.47241 27.6923 3.47241 26.7952V15.08C4.27845 15.4398 5.15805 15.6589 6.08168 15.7071V26.7947C6.08168 26.9714 6.14615 27.1242 6.27531 27.2533C6.40439 27.3825 6.55724 27.4465 6.73388 27.4465H36.7387C36.9152 27.4465 37.0683 27.3825 37.1971 27.2533C37.3261 27.1242 37.3906 26.9714 37.3906 26.7947V9.83573C37.3906 9.65902 37.3261 9.5061 37.1971 9.37687C37.0681 9.24772 36.9152 9.18346 36.7387 9.18346H13.8987Z" fill="white"/>
<path d="M10.6476 21.4173H9.34306C9.16643 21.4173 9.01358 21.4817 8.8845 21.6106C8.75548 21.74 8.69087 21.8926 8.69087 22.0692V23.374C8.69087 23.5506 8.75548 23.7035 8.8845 23.8327C9.01365 23.9614 9.16643 24.0263 9.34306 24.0263H10.6476C10.8242 24.0263 10.9771 23.9617 11.1062 23.8327C11.2352 23.7035 11.2998 23.5506 11.2998 23.374V22.0692C11.2998 21.8926 11.2352 21.7397 11.1062 21.6106C10.9771 21.4818 10.8242 21.4173 10.6476 21.4173Z" fill="white"/>
<path d="M34.1293 21.4173H14.5609C14.3844 21.4173 14.2315 21.4817 14.1024 21.6106C13.9734 21.74 13.9088 21.8926 13.9088 22.0692V23.374C13.9088 23.5506 13.9734 23.7038 14.1024 23.8327C14.2315 23.9614 14.3845 24.0263 14.5609 24.0263H34.1295C34.3065 24.0263 34.4596 23.9617 34.5884 23.8327C34.7172 23.7035 34.7817 23.5506 34.7817 23.374V22.0692C34.7817 21.8926 34.7169 21.7397 34.5881 21.6106C34.4591 21.4818 34.3061 21.4173 34.1293 21.4173Z" fill="white"/>
<path d="M6.43354 5.16841V0.097575C6.43357 -0.061426 6.71519 -5.36452e-05 6.84069 0.097575C7.17375 0.356676 9.72773 2.31838 9.72773 2.61449C9.72773 2.98462 6.95171 5.09438 6.84069 5.16841C6.70839 5.25662 6.43355 5.32741 6.43354 5.16841Z" fill="white"/>
</svg>
